<svg width="1133" height="224" viewBox="0 0 1133 224" fill="none" xmlns="http://www.w3.org/2000/svg">
<g clip-path="url(#clip0_927_911)">
<path d="M119.966 12.2939C121.784 9.23777 126.209 9.23777 128.027 12.2939L243.78 206.867C245.64 209.993 243.387 213.955 239.749 213.955H8.24414C4.60649 213.955 2.35306 209.993 4.21289 206.867L119.966 12.2939ZM30.9814 197.056H201.9L116.44 53.4033L30.9814 197.056Z" fill="white"/>
<path d="M999.967 12.3008C1001.79 9.24176 1006.22 9.24169 1008.04 12.3008L1123.78 206.861C1125.64 209.991 1123.39 213.956 1119.75 213.956H888.257C884.616 213.956 882.36 209.991 884.222 206.861L999.967 12.3008ZM909.985 194.056H1080.9L995.445 50.4033L909.985 194.056Z" fill="white"/>
<path d="M736.798 4.96777C737.317 4.96896 737.833 5.05626 738.324 5.22656L872.858 51.9082C875.386 52.7855 876.668 55.5958 875.675 58.0801L871.169 69.3457C870.839 70.17 870.3 70.8497 869.637 71.3486L870 71.5186L786.06 101.125L849.743 205.852C851.618 208.934 849.455 212.891 845.849 212.978L824.636 213.488C822.974 213.528 821.415 212.685 820.538 211.272L758.256 110.932L741 117.019V208.28C741 210.87 738.9 212.971 736.31 212.971H727.69C725.1 212.971 723 210.87 723 208.28V9.66113C723 7.07092 725.1 4.9707 727.69 4.9707H732.87C732.976 4.96375 733.083 4.95875 733.191 4.95898L736.798 4.96777ZM741 96.0176L839.348 62.9248L741 28.3701V96.0176Z" fill="white"/>
<path d="M349 5.51855C362.318 5.51855 375.051 8.02308 386.755 12.585L377.538 29.4287C368.618 26.2501 359.011 24.5186 349 24.5186C302.056 24.5186 264 62.5744 264 109.519C264 156.463 302.056 194.519 349 194.519C382.093 194.519 410.768 175.606 424.809 148H382.69C380.1 148 378 145.9 378 143.31V134.69C378 132.1 380.1 130 382.69 130H450.981C441.469 177.629 399.427 213.519 349 213.519C291.562 213.519 245 166.956 245 109.519C245 52.0809 291.562 5.51855 349 5.51855Z" fill="white"/>
<path d="M587 5.51855C644.438 5.51855 691 52.0809 691 109.519C691 166.956 644.438 213.519 587 213.519C529.562 213.519 483 166.956 483 109.519C483 52.0809 529.562 5.51855 587 5.51855ZM587 23.5186C539.504 23.5186 501 62.0221 501 109.519C501 157.015 539.504 195.519 587 195.519C634.496 195.519 673 157.015 673 109.519C673 62.0221 634.496 23.5186 587 23.5186Z" fill="white"/>
<circle cx="587.5" cy="109.5" r="19.5" fill="white"/>
</g>
<defs>
<clipPath id="clip0_927_911">
<rect width="1133" height="224" fill="white"/>
</clipPath>
</defs>
</svg>
