<?xml version="1.0" standalone="no"?>
<!DOCTYPE svg PUBLIC "-//W3C//DTD SVG 20010904//EN"
 "http://www.w3.org/TR/2001/REC-SVG-20010904/DTD/svg10.dtd">
<svg version="1.0" xmlns="http://www.w3.org/2000/svg"
 width="750.000000pt" height="736.000000pt" viewBox="0 0 736.000000 736.000000"
 preserveAspectRatio="xMidYMid meet">

<g transform="translate(0.000000,736.000000) scale(0.100000,-0.100000)"
fill="grey" stroke="none">
<path d="M3622 6198 c-8 -8 -12 -47 -12 -109 0 -90 2 -99 22 -113 20 -14 90
-16 564 -16 504 0 543 1 564 18 20 16 22 26 21 117 -1 54 -5 103 -9 107 -5 5
-253 7 -553 5 l-544 -2 548 -3 547 -2 0 -105 c0 -93 -2 -105 -19 -115 -13 -6
-205 -10 -556 -10 -351 0 -543 4 -556 10 -17 9 -19 22 -19 103 0 99 4 112 35
120 20 5 20 5 0 6 -12 0 -26 -4 -33 -11z"/>
<path d="M3710 6090 c0 -37 2 -40 28 -39 23 2 24 2 5 6 -13 2 -23 8 -23 13 0
5 10 11 23 13 l22 4 -22 2 c-32 2 -30 31 2 31 22 0 25 -4 25 -37 0 -46 13 -36
14 12 1 34 0 35 -36 35 -38 0 -38 0 -38 -40z"/>
<path d="M4300 6090 c0 -39 1 -41 28 -38 24 3 27 7 27 38 0 31 -3 35 -27 38
-27 3 -28 1 -28 -38z m45 20 c3 -5 1 -10 -6 -10 -10 0 -10 -3 -1 -12 17 -17
15 -28 -6 -28 -14 0 -19 8 -19 30 0 29 19 41 32 20z"/>
<path d="M4630 6120 c0 -5 -7 -10 -15 -10 -11 0 -15 -10 -14 -32 2 -31 2 -31
6 -5 2 15 8 27 13 27 5 0 11 -12 13 -27 3 -20 4 -15 6 15 0 23 -1 42 -4 42 -3
0 -5 -4 -5 -10z"/>
<path d="M4660 6122 c0 -6 5 -14 11 -18 6 -3 9 -15 6 -25 -3 -11 -1 -17 4 -13
14 8 11 40 -6 54 -9 8 -15 9 -15 2z"/>
<path d="M3893 6113 c-13 -2 -23 -8 -23 -13 0 -4 9 -6 20 -3 15 4 20 0 20 -16
0 -21 -24 -29 -33 -11 -3 6 -4 5 -3 -2 1 -7 12 -14 24 -16 19 -3 22 1 22 32 0
20 -1 35 -2 35 -2 -1 -13 -4 -25 -6z"/>
<path d="M3807 6103 c-10 -9 -9 -41 1 -47 5 -3 9 8 9 24 0 33 -1 33 -10 23z"/>
<path d="M3839 6083 c-3 -18 -2 -33 2 -33 13 0 16 14 9 40 -6 24 -7 24 -11 -7z"/>
<path d="M3941 6097 c-16 -20 -3 -47 23 -46 16 1 17 2 4 6 -21 5 -24 43 -4 43
8 0 17 -5 19 -10 3 -6 4 -5 3 2 -4 19 -31 21 -45 5z"/>
<path d="M4004 6095 c-9 -23 3 -45 23 -44 17 1 17 2 1 6 -21 5 -24 23 -5 23 8
0 7 4 -3 10 -13 8 -13 10 2 10 9 0 19 -6 21 -12 3 -8 6 -6 6 5 1 21 -37 23
-45 2z"/>
<path d="M4070 6095 c0 -8 5 -15 11 -15 5 0 8 4 4 9 -3 5 3 12 12 14 14 4 13
5 -4 6 -14 1 -23 -5 -23 -14z"/>
<path d="M4372 6080 c0 -19 2 -27 5 -17 2 9 2 25 0 35 -3 9 -5 1 -5 -18z"/>
<path d="M4404 6095 c-4 -8 -3 -22 0 -31 7 -18 38 -15 42 4 1 7 0 8 -3 2 -9
-18 -33 -10 -33 11 0 16 5 20 20 16 11 -3 18 -1 14 4 -8 14 -34 11 -40 -6z"/>
<path d="M4464 6095 c-12 -32 23 -63 40 -36 3 5 -2 8 -11 7 -10 0 -19 8 -21
18 -3 15 0 18 17 13 12 -3 21 -1 21 4 0 15 -40 10 -46 -6z"/>
<path d="M4534 6080 c1 -18 7 -25 21 -25 22 0 33 31 17 47 -6 6 -8 0 -5 -16 4
-19 1 -26 -10 -26 -9 0 -18 10 -20 23 -3 19 -4 19 -3 -3z"/>
<path d="M4100 6070 c0 -7 -7 -10 -15 -6 -8 3 -15 1 -15 -4 0 -13 37 -13 45
-1 3 5 1 12 -5 16 -5 3 -10 1 -10 -5z"/>
<path d="M5383 6063 c9 -2 25 -2 35 0 9 3 1 5 -18 5 -19 0 -27 -2 -17 -5z"/>
<path d="M5567 6062 c9 -5 13 -51 16 -147 l3 -140 2 148 c2 134 0 147 -15 147
-13 0 -14 -3 -6 -8z"/>
<path d="M2160 5818 c-15 -17 -20 -35 -20 -79 l0 -58 123 0 c67 0 598 0 1180
-1 l1057 0 0 -639 0 -638 -41 -7 c-45 -7 -89 -44 -89 -76 0 -18 -6 -20 -72
-20 -116 0 -158 -36 -158 -136 0 -51 36 -130 77 -168 14 -13 52 -34 84 -46 62
-22 73 -34 83 -91 l6 -36 -72 -22 c-87 -25 -89 -25 -82 -6 8 20 -15 47 -33 40
-10 -3 -13 1 -11 13 3 13 13 17 46 16 23 0 42 3 42 7 0 14 -37 29 -71 29 l-32
0 7 -55 c5 -42 3 -56 -6 -54 -33 4 -38 -2 -38 -43 1 -24 6 -53 13 -66 12 -21
13 -20 26 25 l12 48 15 -33 c16 -40 34 -34 34 12 0 32 2 34 62 51 34 9 68 19
75 22 9 4 13 -6 13 -33 0 -22 4 -45 8 -51 12 -19 49 11 57 47 15 69 73 101
109 61 44 -49 45 -183 1 -227 -27 -27 -12 -33 16 -8 16 15 19 13 39 -28 65
-129 206 -205 304 -164 21 9 40 16 42 16 2 0 4 -17 5 -37 1 -21 5 -49 9 -63 4
-15 6 4 3 45 -4 63 0 86 48 240 97 317 113 412 84 510 -20 69 -62 115 -106
115 -24 0 -30 5 -38 38 -12 42 -47 80 -101 108 -34 18 -84 22 -327 24 l-33 0
0 695 0 696 -25 24 -24 25 -1140 0 -1140 0 -21 -22z m2316 -9 c11 -12 19 -37
20 -65 l2 -44 -1174 0 -1174 0 0 45 c0 32 6 51 20 65 20 20 33 20 1153 20
1132 0 1134 0 1153 -21z m-276 -2039 c0 -5 -5 -10 -11 -10 -5 0 -7 5 -4 10 3
6 8 10 11 10 2 0 4 -4 4 -10z"/>
<path d="M2241 5786 c-9 -11 -10 -20 -1 -36 13 -24 38 -23 53 1 23 37 -25 68
-52 35z"/>
<path d="M2352 5788 c-16 -16 -15 -23 3 -42 17 -17 40 -12 49 10 14 35 -25 59
-52 32z"/>
<path d="M1138 5723 l-3 -108 -55 -2 c-30 -1 -67 -2 -82 -2 l-28 -1 0 -104 0
-104 92 -4 c51 -1 128 -1 170 1 l78 3 0 104 0 104 -80 0 -80 0 0 105 0 105
120 0 120 0 0 -137 c0 -76 4 -132 9 -125 6 10 52 12 203 10 108 -2 194 0 191
5 -2 4 -92 7 -198 7 l-194 0 -3 123 -3 122 -127 3 -127 3 -3 -108z m162 -218
l0 -95 -160 0 -160 0 0 95 0 95 160 0 160 0 0 -95z"/>
<path d="M1045 5540 c-4 -6 30 -10 94 -10 61 0 101 4 101 10 0 6 -38 10 -94
10 -53 0 -98 -4 -101 -10z"/>
<path d="M1088 5493 c28 -2 76 -2 105 0 28 2 5 3 -53 3 -58 0 -81 -1 -52 -3z"/>
<path d="M1050 5450 c0 -6 33 -10 80 -10 47 0 80 4 80 10 0 6 -33 10 -80 10
-47 0 -80 -4 -80 -10z"/>
<path d="M5543 5763 c9 -2 25 -2 35 0 9 3 1 5 -18 5 -19 0 -27 -2 -17 -5z"/>
<path d="M4942 5677 c-2 -70 -6 -94 -21 -113 -20 -25 -18 -65 3 -61 8 1 13
-58 16 -208 l6 -210 2 208 c1 143 5 207 13 207 23 0 327 -250 462 -380 l58
-56 -83 -81 c-155 -150 -289 -263 -390 -326 l-58 -37 -3 218 -2 217 -3 -222
c-2 -187 0 -223 12 -223 8 0 16 3 18 8 2 4 28 23 58 43 30 20 84 59 120 88 91
73 328 292 335 308 3 9 -18 35 -53 67 -115 106 -248 221 -354 304 -87 68 -106
88 -97 99 9 10 7 19 -9 36 -18 19 -22 38 -25 112 l-3 90 -2 -88z m27 -126 c13
-23 -10 -47 -34 -37 -18 7 -20 42 -2 49 21 9 26 7 36 -12z"/>
<path d="M6151 5724 c0 -11 3 -14 6 -6 3 7 2 16 -1 19 -3 4 -6 -2 -5 -13z"/>
<path d="M5966 5652 c-212 -3 -217 -5 -214 -86 l2 -51 3 50 c3 31 10 55 20 63
20 15 699 17 723 2 8 -5 17 -32 21 -62 l6 -53 2 51 c2 80 -3 83 -209 86 -96 2
-256 2 -354 0z"/>
<path d="M5821 5600 c-17 -10 -7 -40 13 -40 7 0 16 6 19 14 8 19 -15 37 -32
26z"/>
<path d="M5893 5594 c-8 -21 13 -42 28 -27 13 13 5 43 -11 43 -6 0 -13 -7 -17
-16z"/>
<path d="M2275 4895 c0 -374 1 -526 2 -337 2 189 2 495 0 680 -1 185 -2 31 -2
-343z"/>
<path d="M2568 5553 c12 -2 32 -2 45 0 12 2 2 4 -23 4 -25 0 -35 -2 -22 -4z"/>
<path d="M1392 5418 l-2 -127 -87 -3 -88 -3 -3 -67 -3 -68 171 0 170 0 0 29
c0 28 3 30 43 34 l42 4 -42 1 c-42 2 -43 3 -43 37 l0 35 -75 0 -74 0 -4 128
-3 127 -2 -127z m148 -198 l0 -60 -155 0 -155 0 0 60 0 60 155 0 155 0 0 -60z"/>
<path d="M1300 5220 c0 -6 33 -10 80 -10 47 0 80 4 80 10 0 6 -33 10 -80 10
-47 0 -80 -4 -80 -10z"/>
<path d="M5830 5530 l-45 -8 52 1 c29 0 50 4 47 9 -3 4 -6 7 -7 6 -1 0 -22 -4
-47 -8z"/>
<path d="M1794 5415 c0 -66 1 -92 3 -57 2 34 2 88 0 120 -2 31 -3 3 -3 -63z"/>
<path d="M2130 5520 c0 -5 5 -10 10 -10 6 0 10 5 10 10 0 6 -4 10 -10 10 -5 0
-10 -4 -10 -10z"/>
<path d="M5948 5523 c7 -3 16 -2 19 1 4 3 -2 6 -13 5 -11 0 -14 -3 -6 -6z"/>
<path d="M6148 5523 c67 -2 177 -2 245 0 67 1 12 3 -123 3 -135 0 -190 -2
-122 -3z"/>
<path d="M2568 5493 c12 -2 32 -2 45 0 12 2 2 4 -23 4 -25 0 -35 -2 -22 -4z"/>
<path d="M2678 5493 c6 -2 18 -2 25 0 6 3 1 5 -13 5 -14 0 -19 -2 -12 -5z"/>
<path d="M4888 5468 c-8 -13 -24 -41 -37 -63 -26 -47 3 -10 37 47 24 40 24 54
0 16z"/>
<path d="M2568 5433 c12 -2 30 -2 40 0 9 3 -1 5 -23 4 -22 0 -30 -2 -17 -4z"/>
<path d="M2688 5433 c17 -2 47 -2 65 0 17 2 3 4 -33 4 -36 0 -50 -2 -32 -4z"/>
<path d="M5870 5160 l0 -270 270 0 270 0 0 270 0 270 -270 0 -270 0 0 -270z
m270 131 l0 -69 -63 -7 c-34 -4 -76 -5 -92 -3 -30 3 -30 3 -33 76 l-3 72 96 0
95 0 0 -69z m118 -183 l-3 -93 -87 -3 -88 -3 0 96 0 95 90 0 91 0 -3 -92z
m-307 -101 c-4 -74 -11 -72 -11 3 0 35 3 60 7 56 4 -3 6 -30 4 -59z m361 11
c-5 -71 -10 -77 -11 -15 0 31 2 57 7 57 4 0 6 -19 4 -42z"/>
<path d="M2568 5373 c12 -2 30 -2 40 0 9 3 -1 5 -23 4 -22 0 -30 -2 -17 -4z"/>
<path d="M2713 5373 c31 -2 83 -2 115 0 31 2 5 3 -58 3 -63 0 -89 -1 -57 -3z"/>
<path d="M2918 5373 c7 -3 16 -2 19 1 4 3 -2 6 -13 5 -11 0 -14 -3 -6 -6z"/>
<path d="M4810 5340 c-6 -11 -8 -20 -6 -20 3 0 10 9 16 20 6 11 8 20 6 20 -3
0 -10 -9 -16 -20z"/>
<path d="M2568 5313 c12 -2 30 -2 40 0 9 3 -1 5 -23 4 -22 0 -30 -2 -17 -4z"/>
<path d="M2703 5313 c20 -2 54 -2 75 0 20 2 3 4 -38 4 -41 0 -58 -2 -37 -4z"/>
<path d="M2873 5313 c15 -2 37 -2 50 0 12 2 0 4 -28 4 -27 0 -38 -2 -22 -4z"/>
<path d="M2998 5313 c12 -2 30 -2 40 0 9 3 -1 5 -23 4 -22 0 -30 -2 -17 -4z"/>
<path d="M4778 5288 c-22 -34 -42 -74 -31 -63 14 15 55 85 50 85 -3 0 -11 -10
-19 -22z"/>
<path d="M1647 5283 c-2 -5 -3 -55 -2 -113 l2 -105 71 -3 71 -3 4 -122 3 -122
2 123 2 122 79 0 79 0 6 63 c3 34 4 85 3 112 l-3 50 -156 3 c-86 1 -158 -1
-161 -5z m303 -113 l0 -100 -145 0 -145 0 0 100 0 100 145 0 145 0 0 -100z"/>
<path d="M1710 5200 c0 -6 38 -10 95 -10 57 0 95 4 95 10 0 6 -38 10 -95 10
-57 0 -95 -4 -95 -10z"/>
<path d="M1710 5150 c0 -6 39 -10 96 -10 61 0 93 4 89 10 -3 6 -46 10 -96 10
-53 0 -89 -4 -89 -10z"/>
<path d="M1143 5240 c0 -25 2 -35 4 -22 2 12 2 32 0 45 -2 12 -4 2 -4 -23z"/>
<path d="M2568 5253 c12 -2 30 -2 40 0 9 3 -1 5 -23 4 -22 0 -30 -2 -17 -4z"/>
<path d="M2698 5253 c23 -2 59 -2 80 0 20 2 1 4 -43 4 -44 0 -61 -2 -37 -4z"/>
<path d="M2878 5253 c12 -2 32 -2 45 0 12 2 2 4 -23 4 -25 0 -35 -2 -22 -4z"/>
<path d="M2998 5253 c12 -2 30 -2 40 0 9 3 -1 5 -23 4 -22 0 -30 -2 -17 -4z"/>
<path d="M3158 5253 c34 -2 90 -2 125 0 34 2 6 3 -63 3 -69 0 -97 -1 -62 -3z"/>
<path d="M4719 5188 c-7 -13 -19 -34 -27 -48 -14 -24 -13 -24 3 -5 20 24 48
75 41 75 -3 0 -11 -10 -17 -22z"/>
<path d="M2568 5193 c12 -2 30 -2 40 0 9 3 -1 5 -23 4 -22 0 -30 -2 -17 -4z"/>
<path d="M2698 5193 c23 -2 59 -2 80 0 20 2 1 4 -43 4 -44 0 -61 -2 -37 -4z"/>
<path d="M2873 5193 c15 -2 37 -2 50 0 12 2 0 4 -28 4 -27 0 -38 -2 -22 -4z"/>
<path d="M2998 5193 c12 -2 30 -2 40 0 9 3 -1 5 -23 4 -22 0 -30 -2 -17 -4z"/>
<path d="M2568 5133 c12 -2 30 -2 40 0 9 3 -1 5 -23 4 -22 0 -30 -2 -17 -4z"/>
<path d="M2697 5133 c18 -2 50 -2 70 0 21 2 7 4 -32 4 -38 0 -55 -2 -38 -4z"/>
<path d="M2583 5073 c20 -2 54 -2 75 0 20 2 3 4 -38 4 -41 0 -58 -2 -37 -4z"/>
<path d="M4658 5073 c6 -2 18 -2 25 0 6 3 1 5 -13 5 -14 0 -19 -2 -12 -5z"/>
<path d="M4935 5070 c3 -5 8 -10 11 -10 2 0 4 5 4 10 0 6 -5 10 -11 10 -5 0
-7 -4 -4 -10z"/>
<path d="M5303 5073 c15 -2 37 -2 50 0 12 2 0 4 -28 4 -27 0 -38 -2 -22 -4z"/>
<path d="M5403 5073 c9 -2 25 -2 35 0 9 3 1 5 -18 5 -19 0 -27 -2 -17 -5z"/>
<path d="M970 4975 l0 -75 85 0 85 0 0 -35 c0 -32 -2 -35 -30 -35 l-30 0 0
-130 0 -130 45 0 45 0 0 -155 0 -155 -189 0 -190 0 -20 -25 c-19 -25 -20 -40
-18 -478 l1 -452 6 415 5 415 520 0 520 0 3 -422 2 -422 -22 -21 c-14 -13 -35
-20 -60 -20 l-38 0 0 -469 c0 -418 2 -470 16 -475 9 -3 420 -6 915 -6 494 0
899 -2 899 -5 0 -2 -5 -16 -12 -30 l-11 -25 -913 0 -913 0 -21 22 c-20 21 -20
33 -20 499 l0 478 28 4 c15 2 2 5 -28 6 l-55 1 2 -492 c3 -488 3 -493 24 -510
20 -17 62 -18 566 -18 l544 0 -3 -47 c-3 -44 -5 -47 -43 -60 -22 -7 -43 -20
-48 -28 -4 -8 -16 -15 -25 -15 -9 0 -28 -11 -42 -24 -14 -14 -38 -36 -54 -51
-26 -24 -28 -31 -22 -71 l6 -44 -198 -2 -197 -3 -1 -37 -1 -36 63 -4 c68 -3
70 -1 65 55 -2 15 11 17 136 18 76 1 151 0 166 -1 22 -1 28 2 25 16 -5 25 18
28 39 5 9 -12 22 -21 28 -21 6 0 28 -17 50 -39 48 -46 85 -66 151 -82 27 -6
71 -22 98 -35 28 -13 65 -24 83 -24 18 0 33 -4 33 -10 0 -5 9 -10 20 -10 12 0
49 -9 83 -20 211 -67 447 -67 577 1 42 22 190 171 190 191 0 7 -19 -9 -42 -37
-159 -188 -284 -226 -580 -175 -151 25 -224 53 -243 91 -53 102 -4 275 90 315
18 7 82 17 142 20 l108 7 -3 -58 c-2 -31 0 -61 5 -66 6 -6 9 15 9 53 0 45 5
71 18 90 24 37 32 35 41 -9 7 -41 35 -106 42 -99 2 2 -3 21 -11 41 -9 21 -16
50 -16 65 0 15 31 93 70 173 38 80 99 212 135 291 128 288 189 396 244 436
l30 21 47 -22 c68 -33 145 -113 182 -190 18 -37 32 -78 32 -92 0 -14 5 -29 12
-33 20 -12 1 65 -33 134 -36 74 -116 159 -177 189 l-42 21 42 16 c112 45 404
106 606 127 157 16 404 7 507 -20 136 -34 407 -151 483 -208 62 -46 113 -185
130 -355 l8 -78 -72 0 -71 0 -12 93 c-7 50 -17 97 -23 102 -7 7 -9 3 -5 -15 3
-14 8 -52 12 -85 4 -33 9 -68 11 -77 5 -17 -26 -18 -561 -18 -557 0 -568 0
-605 -21 -74 -42 -79 -58 -175 -546 -141 -719 -138 -707 -163 -711 -19 -3 -22
1 -22 28 0 42 -41 80 -86 80 l-34 0 0 143 c0 195 26 293 154 595 59 138 137
364 134 386 -2 13 -13 -9 -27 -53 -35 -116 -155 -341 -256 -482 -29 -40 -32
-51 -26 -85 4 -21 8 -144 10 -271 l3 -233 -197 0 c-195 0 -196 0 -220 -25 -32
-31 -34 -91 -4 -129 l20 -26 244 0 244 0 19 25 c11 14 29 25 40 25 15 0 19 -6
16 -27 -2 -16 3 -9 11 17 9 25 65 297 125 605 61 308 118 577 127 598 9 22 33
51 52 65 l34 27 664 3 c367 1 662 6 659 11 -3 5 -13 58 -21 117 -23 164 -56
254 -117 315 -18 18 -73 52 -123 75 -110 52 -312 134 -331 134 -7 0 -21 15
-30 33 -40 78 -91 109 -214 127 -102 15 -252 2 -344 -30 -33 -11 -60 -20 -62
-20 -2 0 5 24 15 53 10 28 21 66 25 82 7 30 7 30 -38 -14 -39 -39 -52 -45 -98
-49 -61 -5 -85 13 -97 69 -3 17 -15 37 -26 43 -18 10 -18 10 -3 -3 10 -7 18
-22 18 -33 0 -30 28 -76 50 -83 12 -4 44 -5 73 -3 49 3 51 2 60 -28 8 -28 5
-34 -45 -85 -52 -54 -56 -56 -143 -73 -181 -35 -358 -92 -410 -132 l-30 -23 1
402 c0 221 -1 410 -3 420 -4 16 -61 17 -1019 17 l-1014 0 0 30 0 30 1028 0
c981 0 1030 -1 1045 -18 15 -16 17 -64 20 -423 l2 -404 3 408 c2 395 1 408
-18 427 -20 20 -33 20 -1050 20 l-1030 0 0 164 c0 150 -2 165 -21 190 l-20 26
-300 0 -299 0 0 155 0 155 135 0 135 0 0 65 0 65 65 0 65 0 0 -85 0 -85 195 0
195 0 0 85 0 84 78 4 77 3 -77 2 -77 2 -3 48 -3 47 -192 3 -193 2 0 -50 0 -50
-65 0 -65 0 0 60 0 60 -150 0 -150 0 0 35 0 35 90 0 90 0 0 75 0 75 -180 0
-180 0 0 -75z m350 0 l0 -65 -170 0 -170 0 0 65 0 65 170 0 170 0 0 -65z m120
-269 c0 -102 -2 -115 -18 -120 -21 -7 -288 -5 -314 2 -16 4 -18 18 -18 118 l0
114 175 0 175 0 0 -114z m459 88 l61 -7 0 -123 0 -124 -185 0 -185 0 0 130 0
130 124 0 c67 0 151 -3 185 -6z m-111 -562 c11 -11 18 -30 16 -43 -1 -13 -3
-27 -3 -31 -1 -5 -233 -8 -516 -8 l-515 0 0 38 c0 21 5 43 12 50 9 9 134 12
500 12 461 0 489 -1 506 -18z m2052 -856 l0 -424 -40 -66 c-22 -36 -40 -68
-40 -70 0 -3 -16 -40 -36 -83 -20 -43 -56 -121 -79 -173 -24 -52 -59 -128 -79
-167 l-37 -73 -909 0 -910 0 0 460 0 460 29 0 c15 0 40 9 55 21 l26 20 0 260
0 259 1010 0 1010 0 0 -424z m1133 -101 c72 -19 100 -37 126 -81 12 -20 21
-36 21 -38 0 -1 -28 4 -62 12 -117 26 -522 17 -632 -15 -36 -10 20 53 67 76
119 58 350 80 480 46z m-1483 -1050 c0 -19 -47 -95 -59 -95 -8 0 -24 -9 -36
-20 -18 -17 -45 -23 -141 -32 -65 -6 -126 -10 -134 -9 -12 1 -183 10 -212 11
-4 0 -13 6 -20 13 -26 23 -76 47 -110 51 -27 3 -33 8 -33 26 0 21 4 23 56 23
31 0 61 -3 66 -6 6 -4 8 4 5 18 l-4 25 311 0 c171 0 311 -2 311 -5z m-631
-126 l53 -31 -21 -21 c-32 -35 -53 -96 -55 -166 l-2 -66 -45 4 c-53 3 -116 30
-185 77 -39 27 -60 35 -85 32 -30 -3 -34 0 -37 24 -2 16 4 33 15 43 10 8 33
29 51 45 18 17 44 30 58 30 14 0 23 4 20 9 -14 21 57 49 129 50 38 1 62 -6
104 -30z m216 -38 l29 -6 -26 -17 c-14 -9 -38 -38 -54 -65 -26 -43 -29 -57
-29 -133 0 -47 4 -95 8 -107 7 -20 5 -23 -15 -23 -41 1 -106 37 -122 69 -10
18 -16 56 -16 96 0 92 33 164 85 186 23 9 97 9 140 0z"/>
<path d="M1103 4983 c26 -2 68 -2 95 0 26 2 4 3 -48 3 -52 0 -74 -1 -47 -3z"/>
<path d="M1152 4754 c8 -7 218 -7 225 0 4 3 -47 6 -112 6 -65 0 -116 -3 -113
-6z"/>
<path d="M1155 4700 c3 -6 52 -10 110 -10 58 0 107 4 110 10 4 6 -35 10 -110
10 -75 0 -114 -4 -110 -10z"/>
<path d="M1153 4654 c3 -4 33 -6 67 -6 34 0 64 2 67 6 4 3 -27 6 -67 6 -40 0
-71 -3 -67 -6z"/>
<path d="M1693 4693 c31 -2 83 -2 115 0 31 2 5 3 -58 3 -63 0 -89 -1 -57 -3z"/>
<path d="M1703 4643 c37 -2 97 -2 135 0 37 2 6 3 -68 3 -74 0 -105 -1 -67 -3z"/>
<path d="M1643 4604 c8 -9 247 -10 247 -1 0 4 -57 7 -127 7 -69 0 -124 -3
-120 -6z"/>
<path d="M823 4204 c-3 -8 -1 -20 5 -26 16 -16 42 -2 42 22 0 24 -38 28 -47 4z"/>
<path d="M912 4198 c4 -30 43 -33 43 -3 0 13 -8 21 -23 23 -20 3 -23 0 -20
-20z"/>
<path d="M2688 3403 c7 -3 16 -2 19 1 4 3 -2 6 -13 5 -11 0 -14 -3 -6 -6z"/>
<path d="M2938 3403 c7 -3 16 -2 19 1 4 3 -2 6 -13 5 -11 0 -14 -3 -6 -6z"/>
<path d="M2608 3283 c6 -2 18 -2 25 0 6 3 1 5 -13 5 -14 0 -19 -2 -12 -5z"/>
<path d="M2688 3283 c7 -3 16 -2 19 1 4 3 -2 6 -13 5 -11 0 -14 -3 -6 -6z"/>
<path d="M2748 3283 c18 -2 45 -2 60 0 15 2 0 4 -33 4 -33 0 -45 -2 -27 -4z"/>
<path d="M2893 3283 c15 -2 37 -2 50 0 12 2 0 4 -28 4 -27 0 -38 -2 -22 -4z"/>
<path d="M2588 3223 c12 -2 30 -2 40 0 9 3 -1 5 -23 4 -22 0 -30 -2 -17 -4z"/>
<path d="M2718 3223 c23 -2 59 -2 80 0 20 2 1 4 -43 4 -44 0 -61 -2 -37 -4z"/>
<path d="M2893 3223 c15 -2 37 -2 50 0 12 2 0 4 -28 4 -27 0 -38 -2 -22 -4z"/>
<path d="M3018 3223 c12 -2 30 -2 40 0 9 3 -1 5 -23 4 -22 0 -30 -2 -17 -4z"/>
<path d="M2588 3163 c12 -2 32 -2 45 0 12 2 2 4 -23 4 -25 0 -35 -2 -22 -4z"/>
<path d="M2728 3163 c7 -3 16 -2 19 1 4 3 -2 6 -13 5 -11 0 -14 -3 -6 -6z"/>
<path d="M2893 3163 c15 -2 37 -2 50 0 12 2 0 4 -28 4 -27 0 -38 -2 -22 -4z"/>
<path d="M3018 3163 c12 -2 32 -2 45 0 12 2 2 4 -23 4 -25 0 -35 -2 -22 -4z"/>
<path d="M3138 3163 c12 -2 32 -2 45 0 12 2 2 4 -23 4 -25 0 -35 -2 -22 -4z"/>
<path d="M2588 3103 c12 -2 32 -2 45 0 12 2 2 4 -23 4 -25 0 -35 -2 -22 -4z"/>
<path d="M2608 3043 c23 -2 59 -2 80 0 20 2 1 4 -43 4 -44 0 -61 -2 -37 -4z"/>
<path d="M2588 2983 c12 -2 32 -2 45 0 12 2 2 4 -23 4 -25 0 -35 -2 -22 -4z"/>
<path d="M2733 2983 c32 -2 81 -2 110 0 29 2 3 3 -58 3 -60 0 -84 -1 -52 -3z"/>
<path d="M2938 2983 c7 -3 16 -2 19 1 4 3 -2 6 -13 5 -11 0 -14 -3 -6 -6z"/>
<path d="M2588 2923 c12 -2 32 -2 45 0 12 2 2 4 -23 4 -25 0 -35 -2 -22 -4z"/>
<path d="M2718 2923 c23 -2 59 -2 80 0 20 2 1 4 -43 4 -44 0 -61 -2 -37 -4z"/>
<path d="M2948 2923 c12 -2 32 -2 45 0 12 2 2 4 -23 4 -25 0 -35 -2 -22 -4z"/>
<path d="M2588 2863 c12 -2 32 -2 45 0 12 2 2 4 -23 4 -25 0 -35 -2 -22 -4z"/>
<path d="M2718 2863 c23 -2 59 -2 80 0 20 2 1 4 -43 4 -44 0 -61 -2 -37 -4z"/>
<path d="M2893 2863 c15 -2 37 -2 50 0 12 2 0 4 -28 4 -27 0 -38 -2 -22 -4z"/>
<path d="M3018 2863 c12 -2 32 -2 45 0 12 2 2 4 -23 4 -25 0 -35 -2 -22 -4z"/>
<path d="M3193 2863 c43 -2 110 -2 150 0 40 1 5 3 -78 3 -82 0 -115 -2 -72 -3z"/>
<path d="M2588 2803 c12 -2 32 -2 45 0 12 2 2 4 -23 4 -25 0 -35 -2 -22 -4z"/>
<path d="M2718 2803 c23 -2 59 -2 80 0 20 2 1 4 -43 4 -44 0 -61 -2 -37 -4z"/>
<path d="M2893 2803 c15 -2 37 -2 50 0 12 2 0 4 -28 4 -27 0 -38 -2 -22 -4z"/>
<path d="M3018 2803 c12 -2 32 -2 45 0 12 2 2 4 -23 4 -25 0 -35 -2 -22 -4z"/>
<path d="M3163 2803 c26 -2 68 -2 95 0 26 2 4 3 -48 3 -52 0 -74 -1 -47 -3z"/>
<path d="M3408 2803 c39 -2 105 -2 145 0 39 1 7 3 -73 3 -80 0 -112 -2 -72 -3z"/>
<path d="M2588 2743 c12 -2 30 -2 40 0 9 3 -1 5 -23 4 -22 0 -30 -2 -17 -4z"/>
<path d="M2723 2743 c20 -2 54 -2 75 0 20 2 3 4 -38 4 -41 0 -58 -2 -37 -4z"/>
<path d="M2893 2743 c15 -2 37 -2 50 0 12 2 0 4 -28 4 -27 0 -38 -2 -22 -4z"/>
<path d="M3018 2743 c12 -2 30 -2 40 0 9 3 -1 5 -23 4 -22 0 -30 -2 -17 -4z"/>
<path d="M3128 2743 c7 -3 16 -2 19 1 4 3 -2 6 -13 5 -11 0 -14 -3 -6 -6z"/>
<path d="M3218 2743 c18 -2 45 -2 60 0 15 2 0 4 -33 4 -33 0 -45 -2 -27 -4z"/>
<path d="M3368 2743 c12 -2 30 -2 40 0 9 3 -1 5 -23 4 -22 0 -30 -2 -17 -4z"/>
<path d="M3483 2743 c9 -2 25 -2 35 0 9 3 1 5 -18 5 -19 0 -27 -2 -17 -5z"/>
<path d="M2588 2683 c12 -2 30 -2 40 0 9 3 -1 5 -23 4 -22 0 -30 -2 -17 -4z"/>
<path d="M2718 2683 c23 -2 59 -2 80 0 20 2 1 4 -43 4 -44 0 -61 -2 -37 -4z"/>
<path d="M2893 2683 c15 -2 37 -2 50 0 12 2 0 4 -28 4 -27 0 -38 -2 -22 -4z"/>
<path d="M2588 2623 c12 -2 32 -2 45 0 12 2 2 4 -23 4 -25 0 -35 -2 -22 -4z"/>
<path d="M2703 2623 c9 -2 23 -2 30 0 6 3 -1 5 -18 5 -16 0 -22 -2 -12 -5z"/>
<path d="M2588 2563 c12 -2 32 -2 45 0 12 2 2 4 -23 4 -25 0 -35 -2 -22 -4z"/>
<path d="M2868 2145 c-3 -14 -1 -25 3 -25 5 0 9 11 9 25 0 14 -2 25 -4 25 -2
0 -6 -11 -8 -25z"/>
<path d="M2655 2080 c28 -12 37 -12 30 0 -3 6 -16 10 -28 9 -21 0 -21 -1 -2
-9z"/>
<path d="M2144 4915 c0 -66 1 -92 3 -57 2 34 2 88 0 120 -2 31 -3 3 -3 -63z"/>
<path d="M2550 4971 c0 -6 4 -13 10 -16 6 -3 7 1 4 9 -7 18 -14 21 -14 7z"/>
<path d="M2728 4943 c29 -2 74 -2 100 0 26 2 2 3 -53 3 -55 0 -76 -1 -47 -3z"/>
<path d="M2624 4820 c0 -69 1 -97 3 -62 2 34 2 90 0 125 -2 34 -3 6 -3 -63z"/>
<path d="M2707 4883 c18 -2 50 -2 70 0 21 2 7 4 -32 4 -38 0 -55 -2 -38 -4z"/>
<path d="M2873 4883 c15 -2 37 -2 50 0 12 2 0 4 -28 4 -27 0 -38 -2 -22 -4z"/>
<path d="M3102 4883 c70 -2 187 -2 260 0 73 1 16 3 -127 3 -143 0 -203 -2
-133 -3z"/>
<path d="M2707 4823 c18 -2 50 -2 70 0 21 2 7 4 -32 4 -38 0 -55 -2 -38 -4z"/>
<path d="M2873 4823 c15 -2 37 -2 50 0 12 2 0 4 -28 4 -27 0 -38 -2 -22 -4z"/>
<path d="M2998 4823 c12 -2 30 -2 40 0 9 3 -1 5 -23 4 -22 0 -30 -2 -17 -4z"/>
<path d="M5751 4819 c-1 -19 26 -45 36 -35 3 3 1 6 -6 6 -6 0 -16 10 -21 23
-6 15 -9 17 -9 6z"/>
<path d="M6514 4802 c-10 -15 -36 -18 -195 -22 l-184 -6 176 -2 c161 -2 179 0
200 17 13 11 22 22 19 25 -3 3 -11 -3 -16 -12z"/>
<path d="M5883 4773 c48 -2 125 -2 170 0 45 1 6 3 -88 3 -93 0 -130 -2 -82 -3z"/>
<path d="M2707 4763 c18 -2 50 -2 70 0 21 2 7 4 -32 4 -38 0 -55 -2 -38 -4z"/>
<path d="M2873 4763 c15 -2 37 -2 50 0 12 2 0 4 -28 4 -27 0 -38 -2 -22 -4z"/>
<path d="M2993 4763 c9 -2 23 -2 30 0 6 3 -1 5 -18 5 -16 0 -22 -2 -12 -5z"/>
<path d="M6150 4690 l0 -70 -562 -3 -563 -2 568 -3 567 -2 0 75 c0 41 -2 75
-5 75 -3 0 -5 -31 -5 -70z"/>
<path d="M2130 4710 c0 -5 5 -10 11 -10 5 0 7 5 4 10 -3 6 -8 10 -11 10 -2 0
-4 -4 -4 -10z"/>
<path d="M2707 4703 c18 -2 50 -2 70 0 21 2 7 4 -32 4 -38 0 -55 -2 -38 -4z"/>
<path d="M2873 4703 c15 -2 37 -2 50 0 12 2 0 4 -28 4 -27 0 -38 -2 -22 -4z"/>
<path d="M2998 4703 c12 -2 32 -2 45 0 12 2 2 4 -23 4 -25 0 -35 -2 -22 -4z"/>
<path d="M3128 4703 c12 -2 30 -2 40 0 9 3 -1 5 -23 4 -22 0 -30 -2 -17 -4z"/>
<path d="M2577 4573 c18 -2 50 -2 70 0 21 2 7 4 -32 4 -38 0 -55 -2 -38 -4z"/>
<path d="M2568 4513 c12 -2 30 -2 40 0 9 3 -1 5 -23 4 -22 0 -30 -2 -17 -4z"/>
<path d="M2708 4513 c28 -2 76 -2 105 0 28 2 5 3 -53 3 -58 0 -81 -1 -52 -3z"/>
<path d="M2568 4453 c12 -2 30 -2 40 0 9 3 -1 5 -23 4 -22 0 -30 -2 -17 -4z"/>
<path d="M2693 4453 c20 -2 54 -2 75 0 20 2 3 4 -38 4 -41 0 -58 -2 -37 -4z"/>
<path d="M2868 4453 c12 -2 30 -2 40 0 9 3 -1 5 -23 4 -22 0 -30 -2 -17 -4z"/>
<path d="M2988 4453 c12 -2 30 -2 40 0 9 3 -1 5 -23 4 -22 0 -30 -2 -17 -4z"/>
<path d="M5290 4400 c-19 -19 -20 -33 -20 -538 0 -490 1 -520 18 -535 10 -10
23 -17 28 -17 4 0 -2 7 -14 16 l-22 15 0 475 0 474 660 0 660 0 0 -473 c0
-355 -3 -476 -12 -485 -8 -8 -57 -13 -142 -14 l-131 -2 129 -3 c110 -3 132 -1
147 13 18 16 19 43 19 535 l0 518 -22 21 c-21 20 -32 20 -650 20 -615 0 -628
0 -648 -20z m1294 -12 c9 -12 16 -37 16 -55 l0 -33 -660 0 -660 0 0 39 c0 75
-33 71 667 71 l622 0 15 -22z"/>
<path d="M5344 4365 c-7 -18 3 -35 21 -35 21 0 28 19 15 35 -16 19 -29 19 -36
0z"/>
<path d="M5420 4350 c0 -16 5 -21 23 -18 12 2 22 10 22 18 0 8 -10 16 -22 18
-18 3 -23 -2 -23 -18z"/>
<path d="M2568 4393 c12 -2 30 -2 40 0 9 3 -1 5 -23 4 -22 0 -30 -2 -17 -4z"/>
<path d="M2698 4393 c23 -2 59 -2 80 0 20 2 1 4 -43 4 -44 0 -61 -2 -37 -4z"/>
<path d="M2868 4393 c12 -2 32 -2 45 0 12 2 2 4 -23 4 -25 0 -35 -2 -22 -4z"/>
<path d="M2988 4393 c12 -2 32 -2 45 0 12 2 2 4 -23 4 -25 0 -35 -2 -22 -4z"/>
<path d="M3108 4393 c12 -2 32 -2 45 0 12 2 2 4 -23 4 -25 0 -35 -2 -22 -4z"/>
<path d="M3243 4393 c20 -2 54 -2 75 0 20 2 3 4 -38 4 -41 0 -58 -2 -37 -4z"/>
<path d="M2568 4333 c12 -2 30 -2 40 0 9 3 -1 5 -23 4 -22 0 -30 -2 -17 -4z"/>
<path d="M2703 4333 c20 -2 54 -2 75 0 20 2 3 4 -38 4 -41 0 -58 -2 -37 -4z"/>
<path d="M2868 4333 c12 -2 32 -2 45 0 12 2 2 4 -23 4 -25 0 -35 -2 -22 -4z"/>
<path d="M2988 4333 c12 -2 32 -2 45 0 12 2 2 4 -23 4 -25 0 -35 -2 -22 -4z"/>
<path d="M3118 4333 c17 -2 47 -2 65 0 17 2 3 4 -33 4 -36 0 -50 -2 -32 -4z"/>
<path d="M3268 4333 c12 -2 30 -2 40 0 9 3 -1 5 -23 4 -22 0 -30 -2 -17 -4z"/>
<path d="M2142 4240 c-2 -92 9 -123 48 -133 11 -3 18 -1 14 4 -3 5 -11 9 -19
9 -23 0 -30 21 -36 115 l-5 90 -2 -85z"/>
<path d="M2568 4273 c12 -2 30 -2 40 0 9 3 -1 5 -23 4 -22 0 -30 -2 -17 -4z"/>
<path d="M2568 4213 c12 -2 30 -2 40 0 9 3 -1 5 -23 4 -22 0 -30 -2 -17 -4z"/>
<path d="M5416 4104 c-11 -29 -7 -179 6 -192 7 -7 33 -12 60 -12 l47 0 4 -72
3 -73 2 73 2 72 44 0 c25 0 48 6 55 14 8 9 11 47 9 107 l-3 94 -111 3 c-95 2
-113 0 -118 -14z m219 -94 l0 -95 -100 0 -100 0 -8 73 c-5 40 -6 84 -3 98 7
25 7 25 109 22 l102 -3 0 -95z"/>
<path d="M5714 4107 c-2 -7 -3 -56 -2 -108 l3 -94 90 -3 c143 -5 136 -10 133
111 l-3 102 -108 3 c-83 2 -109 0 -113 -11z m211 -97 l0 -95 -100 0 -100 0 -3
98 -3 98 103 -3 103 -3 0 -95z"/>
<path d="M6392 4104 c-27 -19 -28 -36 -2 -59 15 -13 20 -32 22 -74 l2 -56 3
55 c3 38 11 62 25 77 23 24 19 46 -10 62 -14 7 -25 6 -40 -5z m52 -19 c4 -12
-17 -45 -29 -45 -2 0 -10 7 -19 15 -20 20 -10 45 19 45 13 0 25 -7 29 -15z"/>
<path d="M882 4008 c-17 -17 -17 -559 0 -576 17 -17 349 -17 366 0 17 17 17
559 0 576 -17 17 -349 17 -366 0z m366 -228 l2 -225 -182 2 -183 2 -3 213 c-1
117 0 218 3 225 3 11 44 13 182 11 l178 -3 3 -225z m0 -292 l-3 -53 -169 -3
c-116 -2 -173 1 -182 9 -8 7 -14 30 -14 55 l0 44 186 0 185 0 -3 -52z"/>
<path d="M978 3890 c-67 -55 -74 -140 -17 -205 57 -65 154 -67 214 -5 22 23
29 41 33 83 8 97 -46 157 -143 157 -41 0 -57 -5 -87 -30z m153 5 c41 -22 69
-71 69 -124 0 -37 -6 -49 -39 -82 -34 -34 -44 -39 -86 -39 -84 0 -135 50 -135
133 0 97 103 157 191 112z"/>
<path d="M1322 4008 c-9 -9 -11 -64 -10 -197 l2 -186 6 190 5 190 175 0 175 0
0 -197 c0 -108 3 -194 8 -191 13 8 8 378 -5 391 -17 17 -339 17 -356 0z"/>
<path d="M4192 3965 c0 -16 2 -22 5 -12 2 9 2 23 0 30 -3 6 -5 -1 -5 -18z"/>
<path d="M5998 3983 c7 -3 16 -2 19 1 4 3 -2 6 -13 5 -11 0 -14 -3 -6 -6z"/>
<path d="M6051 3966 c2 -2 15 -9 29 -15 24 -11 24 -11 6 3 -16 13 -49 24 -35
12z"/>
<path d="M6111 3931 c-11 -20 -5 -51 10 -51 5 0 9 -47 9 -105 l0 -104 -62 -3
-63 -3 -3 -85 c-5 -138 -11 -131 121 -128 l112 3 0 105 0 105 -47 3 -48 3 0
101 c0 84 3 103 18 114 15 11 26 4 97 -64 l80 -77 -73 76 c-41 42 -79 87 -86
100 -15 31 -51 37 -65 10z m50 -7 c11 -14 10 -18 -6 -30 -16 -12 -21 -12 -34
0 -12 12 -12 18 -1 30 16 20 24 20 41 0z m64 -364 l0 -95 -105 0 -105 0 -3 84
c-2 46 0 90 2 98 4 11 29 13 108 11 l103 -3 0 -95z"/>
<path d="M1388 3893 c12 -2 30 -2 40 0 9 3 -1 5 -23 4 -22 0 -30 -2 -17 -4z"/>
<path d="M1483 3893 c9 -2 25 -2 35 0 9 3 1 5 -18 5 -19 0 -27 -2 -17 -5z"/>
<path d="M1388 3863 c12 -2 30 -2 40 0 9 3 -1 5 -23 4 -22 0 -30 -2 -17 -4z"/>
<path d="M1388 3833 c12 -2 30 -2 40 0 9 3 -1 5 -23 4 -22 0 -30 -2 -17 -4z"/>
<path d="M1508 3833 c23 -2 59 -2 80 0 20 2 1 4 -43 4 -44 0 -61 -2 -37 -4z"/>
<path d="M1388 3803 c12 -2 30 -2 40 0 9 3 -1 5 -23 4 -22 0 -30 -2 -17 -4z"/>
<path d="M4489 3793 c-13 -16 -12 -17 4 -4 9 7 17 15 17 17 0 8 -8 3 -21 -13z"/>
<path d="M4532 3796 c7 -8 15 -12 17 -11 5 6 -10 25 -20 25 -5 0 -4 -6 3 -14z"/>
<path d="M1388 3773 c12 -2 30 -2 40 0 9 3 -1 5 -23 4 -22 0 -30 -2 -17 -4z"/>
<path d="M1488 3773 c17 -2 47 -2 65 0 17 2 3 4 -33 4 -36 0 -50 -2 -32 -4z"/>
<path d="M6411 3744 c0 -11 3 -14 6 -6 3 7 2 16 -1 19 -3 4 -6 -2 -5 -13z"/>
<path d="M1388 3743 c12 -2 30 -2 40 0 9 3 -1 5 -23 4 -22 0 -30 -2 -17 -4z"/>
<path d="M1468 3743 c7 -3 16 -2 19 1 4 3 -2 6 -13 5 -11 0 -14 -3 -6 -6z"/>
<path d="M4511 3703 c0 -29 2 -33 8 -18 7 18 4 55 -5 55 -2 0 -4 -17 -3 -37z"/>
<path d="M6355 3712 c21 -24 29 -41 27 -62 -5 -43 47 -62 70 -26 18 27 -11 72
-40 61 -9 -3 -29 7 -51 27 l-36 33 30 -33z m85 -47 c18 -21 5 -47 -22 -43 -26
3 -37 36 -16 49 18 12 24 11 38 -6z"/>
<path d="M1388 3713 c12 -2 30 -2 40 0 9 3 -1 5 -23 4 -22 0 -30 -2 -17 -4z"/>
<path d="M1468 3713 c7 -3 16 -2 19 1 4 3 -2 6 -13 5 -11 0 -14 -3 -6 -6z"/>
<path d="M1383 3683 c9 -2 25 -2 35 0 9 3 1 5 -18 5 -19 0 -27 -2 -17 -5z"/>
<path d="M5475 3670 l-60 -5 -3 -102 c-3 -121 -10 -116 138 -111 l95 3 0 105
0 105 -55 5 c-30 3 -82 3 -115 0z m160 -110 l0 -95 -105 0 -105 0 -3 84 c-2
46 0 90 2 98 4 11 29 13 108 11 l103 -3 0 -95z"/>
<path d="M5714 3657 c-2 -7 -3 -56 -2 -108 l3 -94 110 0 110 0 0 105 0 105
-108 3 c-83 2 -109 0 -113 -11z m211 -97 l0 -95 -102 -3 -103 -3 0 101 0 101
103 -3 102 -3 0 -95z"/>
<path d="M4151 3628 c-1 -29 22 -48 58 -48 17 0 21 -6 21 -35 0 -22 6 -38 15
-41 8 -4 15 -16 16 -28 0 -14 2 -16 6 -6 3 8 13 21 22 29 15 13 15 13 -1 8
-33 -11 -48 3 -48 44 0 36 -2 39 -29 39 -30 0 -46 13 -54 45 -4 15 -5 14 -6
-7z"/>
<path d="M1428 3603 c46 -2 118 -2 160 0 42 1 5 3 -83 3 -88 0 -123 -2 -77 -3z"/>
<path d="M1316 3534 c-10 -27 -7 -89 6 -102 17 -17 339 -17 356 0 7 7 12 29
12 49 0 72 7 69 -190 69 -153 0 -179 -2 -184 -16z m359 -49 l0 -50 -155 -3
c-199 -4 -200 -3 -200 52 0 23 3 46 7 50 4 3 84 5 177 4 l171 -3 0 -50z"/>
<path d="M5393 3313 c26 -2 67 -2 90 0 23 2 2 3 -48 3 -49 0 -68 -1 -42 -3z"/>
<path d="M766 3276 c3 -8 13 -17 22 -21 13 -5 13 -2 -3 15 -21 24 -26 25 -19
6z"/>
<path d="M958 3243 c29 -2 74 -2 100 0 26 2 2 3 -53 3 -55 0 -76 -1 -47 -3z"/>
<path d="M1163 3243 c9 -2 23 -2 30 0 6 3 -1 5 -18 5 -16 0 -22 -2 -12 -5z"/>
<path d="M1318 3243 c23 -2 61 -2 85 0 23 2 4 4 -43 4 -47 0 -66 -2 -42 -4z"/>
<path d="M937 3103 c-13 -12 -7 -40 11 -54 15 -13 16 -12 3 3 -7 10 -11 27 -8
38 5 21 4 24 -6 13z"/>
<path d="M996 3097 c3 -10 9 -15 12 -12 3 3 0 11 -7 18 -10 9 -11 8 -5 -6z"/>
<path d="M990 3055 c-7 -9 -8 -15 -2 -15 5 0 12 7 16 15 3 8 4 15 2 15 -2 0
-9 -7 -16 -15z"/>
<path d="M6064 3029 c-13 -5 -7 -8 24 -8 23 -1 42 1 42 3 0 8 -48 12 -66 5z"/>
<path d="M1160 2865 c-6 -8 -9 -23 -5 -34 14 -45 79 -30 73 16 -2 15 -9 28
-16 29 -7 1 -8 0 -2 -3 16 -8 11 -50 -7 -57 -9 -4 -23 0 -32 9 -13 13 -13 19
-3 35 14 23 10 26 -8 5z"/>
<path d="M6193 2794 c-58 -62 -127 -226 -148 -352 -4 -26 -11 -40 -17 -35 -8
4 -9 -5 -5 -27 4 -18 7 -59 7 -91 0 -33 4 -59 9 -59 5 0 6 29 4 64 -15 177
127 526 213 526 61 0 95 -131 75 -290 -12 -98 -39 -208 -61 -249 -6 -12 -9
-27 -7 -34 2 -7 14 8 27 33 42 82 134 189 200 233 35 24 87 22 95 -3 14 -45
-45 -171 -125 -265 -57 -67 -75 -77 -132 -73 l-46 3 119 139 c65 77 119 144
119 150 0 12 6 18 -105 -114 -161 -192 -146 -180 -216 -180 -59 0 -61 1 -55
23 20 71 96 421 112 512 4 22 3 37 -1 33 -5 -5 -23 -81 -41 -170 -19 -90 -46
-216 -60 -280 l-27 -118 -74 0 c-71 0 -73 1 -68 23 43 187 42 201 -29 259 -31
27 -46 49 -56 82 -7 26 -17 49 -21 52 -12 7 -11 3 6 -46 8 -23 15 -43 15 -44
0 -1 -33 -1 -72 0 l-73 2 65 -7 c53 -5 110 -23 110 -34 0 -1 -326 -3 -725 -3
-687 -2 -726 -3 -756 -20 -57 -34 -67 -58 -108 -269 -22 -110 -74 -375 -116
-590 -42 -214 -78 -398 -81 -407 -5 -17 39 -18 819 -18 l825 0 22 123 c13 67
28 151 34 187 l12 65 137 3 137 3 3 -188 2 -188 3 223 2 222 65 0 65 0 3 -217
3 -218 1 258 2 257 -196 0 -195 0 6 48 c11 74 14 80 39 76 22 -5 22 -5 -1 5
-17 8 -21 16 -17 33 8 38 47 230 54 271 l6 39 202 -2 202 -1 41 38 c85 76 179
236 180 305 0 18 -8 33 -24 44 -23 14 -28 14 -69 -4 -45 -20 -103 -72 -170
-152 -21 -25 -34 -36 -28 -25 5 11 17 67 26 124 44 259 -33 430 -142 315z"/>
<path d="M5815 2660 c-12 -13 -18 -40 -21 -87 l-3 -68 9 62 c11 77 24 103 53
103 43 -1 85 -54 135 -175 18 -44 31 -66 27 -50 -9 45 -68 166 -99 203 -32 37
-73 43 -101 12z"/>
<path d="M1164 2545 c-33 -33 -50 -76 -65 -160 l-12 -69 -24 50 c-41 81 -102
134 -154 134 -20 0 -21 -3 -15 -47 9 -71 52 -150 119 -220 l59 -62 -44 -4
c-23 -2 39 -4 139 -5 134 -2 183 -5 186 -14 3 -8 6 -6 6 5 1 13 -7 17 -40 17
l-40 0 48 48 c90 88 125 212 60 212 -27 0 -104 -46 -117 -70 -20 -38 -27 -20
-13 33 34 126 -24 221 -93 152z m83 -22 c20 -50 7 -128 -43 -256 -62 -157 -71
-123 -24 93 16 74 27 136 25 139 -9 8 -40 -124 -56 -241 -7 -48 -16 -85 -20
-82 -4 2 -13 35 -19 72 -20 108 7 228 63 290 31 33 55 28 74 -15z m-279 -56
c70 -52 106 -122 136 -262 4 -17 -19 14 -54 75 -76 130 -90 153 -96 147 -2 -2
20 -45 50 -95 31 -50 62 -105 71 -122 16 -30 16 -31 -3 -21 -60 32 -155 182
-169 265 -5 31 -3 36 14 36 10 0 33 -11 51 -23z m440 -74 c10 -72 -132 -240
-187 -222 -6 2 21 46 59 97 38 50 66 92 64 92 -7 0 -46 -47 -101 -122 -26 -34
-48 -58 -50 -51 -7 19 63 146 99 179 62 59 110 70 116 27z"/>
<path d="M921 2138 c2 -30 2 -30 6 -6 3 20 11 28 31 31 24 4 24 4 -5 6 -31 1
-33 -1 -32 -31z"/>
<path d="M6438 2148 c18 -18 15 -48 -5 -49 -10 0 -117 0 -238 1 -121 1 -217
-1 -214 -4 10 -10 461 -8 471 2 13 13 2 62 -14 62 -9 0 -9 -3 0 -12z"/>
<path d="M1335 2080 c-4 -28 -5 -53 -2 -56 2 -3 7 19 11 47 4 28 5 53 3 56 -3
2 -8 -19 -12 -47z"/>
<path d="M932 2080 c0 -14 2 -19 5 -12 2 6 2 18 0 25 -3 6 -5 1 -5 -13z"/>
<path d="M6403 2035 c0 -22 2 -30 4 -17 2 12 2 30 0 40 -3 9 -5 -1 -4 -23z"/>
<path d="M942 2030 c0 -14 4 -38 8 -55 7 -27 8 -27 8 -5 0 14 -4 39 -8 55 -7
27 -8 27 -8 5z"/>
<path d="M1322 1985 c0 -16 2 -22 5 -12 2 9 2 23 0 30 -3 6 -5 -1 -5 -18z"/>
<path d="M6392 1960 c0 -19 2 -27 5 -17 2 9 2 25 0 35 -3 9 -5 1 -5 -18z"/>
<path d="M1312 1925 c0 -16 2 -22 5 -12 2 9 2 23 0 30 -3 6 -5 -1 -5 -18z"/>
<path d="M962 1920 c0 -14 2 -19 5 -12 2 6 2 18 0 25 -3 6 -5 1 -5 -13z"/>
<path d="M6382 1895 c0 -16 2 -22 5 -12 2 9 2 23 0 30 -3 6 -5 -1 -5 -18z"/>
<path d="M1299 1862 c-3 -20 -2 -29 4 -23 5 5 7 19 5 32 -3 20 -5 19 -9 -9z"/>
<path d="M970 1861 c0 -11 4 -22 9 -25 4 -3 6 6 3 19 -5 30 -12 33 -12 6z"/>
<path d="M6371 1844 c0 -11 3 -14 6 -6 3 7 2 16 -1 19 -3 4 -6 -2 -5 -13z"/>
<path d="M880 1813 c-69 -3 -99 -8 -112 -20 -23 -21 -23 -75 0 -96 26 -24 36
-21 12 3 -22 22 -27 69 -8 88 8 8 46 12 102 12 50 0 98 5 106 10 8 5 11 9 5 8
-5 -1 -53 -4 -105 -5z"/>
<path d="M1684 1795 c-28 -28 -31 -61 -8 -93 l15 -22 -298 0 -298 0 3 -265 3
-265 69 0 70 0 0 190 0 190 290 0 290 0 3 -192 2 -193 3 228 2 227 60 0 60 0
3 -227 2 -228 3 268 2 267 -119 0 c-105 0 -121 2 -145 21 -45 35 -26 92 34
101 l25 3 -24 7 c-17 5 -30 0 -47 -17z"/>
<path d="M1760 1810 c0 -6 33 -9 83 -9 77 2 79 2 32 9 -72 12 -115 11 -115 0z"/>
<path d="M6336 1808 c3 -4 11 -5 19 -1 21 7 19 12 -4 10 -11 0 -18 -5 -15 -9z"/>
<path d="M1048 1803 c12 -2 30 -2 40 0 9 3 -1 5 -23 4 -22 0 -30 -2 -17 -4z"/>
<path d="M1158 1803 c23 -2 61 -2 85 0 23 2 4 4 -43 4 -47 0 -66 -2 -42 -4z"/>
<path d="M1318 1803 c7 -3 16 -2 19 1 4 3 -2 6 -13 5 -11 0 -14 -3 -6 -6z"/>
<path d="M1393 1803 c26 -2 68 -2 95 0 26 2 4 3 -48 3 -52 0 -74 -1 -47 -3z"/>
<path d="M1558 1803 c12 -2 30 -2 40 0 9 3 -1 5 -23 4 -22 0 -30 -2 -17 -4z"/>
<path d="M1978 1803 c18 -2 45 -2 60 0 15 2 0 4 -33 4 -33 0 -45 -2 -27 -4z"/>
<path d="M2323 1803 c59 -2 155 -2 215 0 59 1 10 3 -108 3 -118 0 -167 -2
-107 -3z"/>
<path d="M6143 1803 c15 -2 37 -2 50 0 12 2 0 4 -28 4 -27 0 -38 -2 -22 -4z"/>
<path d="M6288 1803 c6 -2 18 -2 25 0 6 3 1 5 -13 5 -14 0 -19 -2 -12 -5z"/>
<path d="M6420 1798 c13 -7 29 -26 34 -41 8 -22 6 -31 -15 -53 -23 -26 -23
-26 -2 -15 33 17 40 57 16 89 -11 15 -29 28 -39 30 -14 2 -12 -1 6 -10z"/>
<path d="M872 1673 c37 -2 100 -2 140 0 40 1 10 3 -67 3 -77 0 -110 -1 -73 -3z"/>
<path d="M2178 1673 c117 -2 306 -2 420 0 114 1 18 2 -213 2 -231 0 -324 -1
-207 -2z"/>
<path d="M6328 1673 c18 -2 45 -2 60 0 15 2 0 4 -33 4 -33 0 -45 -2 -27 -4z"/>
</g>
</svg>
